<svg width="393" height="265" viewBox="0 0 393 265" fill="none" xmlns="http://www.w3.org/2000/svg">
<g clip-path="url(#clip0_488_103)">
<path d="M118 242C111.935 242 107 246.932 107 252.999C107 259.063 111.935 263.998 118 263.998C124.065 263.998 129 259.063 129 252.999C129 246.932 124.065 242 118 242ZM118 261.547C113.286 261.547 109.451 257.713 109.451 252.999C109.451 248.283 113.286 244.449 118 244.449C122.715 244.449 126.55 248.283 126.55 252.999C126.549 257.713 122.715 261.547 118 261.547Z" fill="white"/>
<path d="M121.61 254.991C120.908 256.197 119.601 256.945 118.2 256.945C116.025 256.945 114.254 255.174 114.254 252.999C114.254 250.822 116.025 249.05 118.2 249.05C119.601 249.05 120.908 249.801 121.61 251.004L121.701 251.162H124.352L124.193 250.735C123.732 249.513 122.922 248.474 121.851 247.732C120.777 246.988 119.515 246.594 118.2 246.594C114.669 246.594 111.798 249.468 111.798 252.999C111.798 256.53 114.669 259.401 118.2 259.401C119.515 259.401 120.777 259.008 121.851 258.263C122.922 257.522 123.732 256.483 124.193 255.261L124.352 254.834H121.701L121.61 254.991Z" fill="white"/>
</g>
<path d="M134.469 260V258.33L139.637 252.975C140.189 252.393 140.644 251.884 141.002 251.446C141.365 251.004 141.636 250.584 141.815 250.186C141.994 249.788 142.083 249.366 142.083 248.918C142.083 248.411 141.964 247.974 141.725 247.606C141.487 247.233 141.161 246.947 140.748 246.748C140.336 246.544 139.871 246.442 139.354 246.442C138.807 246.442 138.33 246.554 137.922 246.778C137.514 247.002 137.201 247.317 136.982 247.725C136.763 248.133 136.654 248.61 136.654 249.157H134.454C134.454 248.227 134.668 247.414 135.096 246.718C135.523 246.022 136.11 245.483 136.855 245.1C137.601 244.712 138.449 244.518 139.398 244.518C140.358 244.518 141.203 244.71 141.934 245.093C142.67 245.471 143.244 245.988 143.657 246.644C144.069 247.295 144.276 248.031 144.276 248.851C144.276 249.418 144.169 249.972 143.955 250.514C143.746 251.056 143.381 251.66 142.859 252.326C142.337 252.988 141.611 253.79 140.681 254.735L137.646 257.912V258.024H144.522V260H134.469ZM152.665 260.254C151.487 260.249 150.48 259.938 149.645 259.321C148.81 258.705 148.171 257.808 147.728 256.629C147.286 255.451 147.065 254.032 147.065 252.371C147.065 250.716 147.286 249.301 147.728 248.128C148.176 246.955 148.817 246.06 149.652 245.443C150.493 244.827 151.497 244.518 152.665 244.518C153.833 244.518 154.835 244.829 155.67 245.451C156.506 246.067 157.145 246.962 157.587 248.135C158.034 249.304 158.258 250.716 158.258 252.371C158.258 254.037 158.037 255.458 157.594 256.637C157.152 257.81 156.513 258.707 155.678 259.329C154.843 259.945 153.838 260.254 152.665 260.254ZM152.665 258.262C153.699 258.262 154.507 257.758 155.089 256.749C155.675 255.739 155.969 254.28 155.969 252.371C155.969 251.103 155.835 250.032 155.566 249.157C155.303 248.277 154.922 247.611 154.425 247.158C153.933 246.701 153.346 246.472 152.665 246.472C151.636 246.472 150.828 246.979 150.241 247.994C149.655 249.008 149.359 250.467 149.354 252.371C149.354 253.644 149.486 254.72 149.749 255.6C150.018 256.475 150.398 257.139 150.89 257.591C151.382 258.039 151.974 258.262 152.665 258.262ZM160.904 260V258.33L166.072 252.975C166.623 252.393 167.078 251.884 167.436 251.446C167.799 251.004 168.07 250.584 168.249 250.186C168.428 249.788 168.518 249.366 168.518 248.918C168.518 248.411 168.398 247.974 168.16 247.606C167.921 247.233 167.595 246.947 167.183 246.748C166.77 246.544 166.305 246.442 165.788 246.442C165.241 246.442 164.764 246.554 164.356 246.778C163.949 247.002 163.636 247.317 163.417 247.725C163.198 248.133 163.089 248.61 163.089 249.157H160.889C160.889 248.227 161.103 247.414 161.53 246.718C161.958 246.022 162.544 245.483 163.29 245.1C164.036 244.712 164.883 244.518 165.833 244.518C166.793 244.518 167.638 244.71 168.369 245.093C169.104 245.471 169.679 245.988 170.091 246.644C170.504 247.295 170.71 248.031 170.71 248.851C170.71 249.418 170.603 249.972 170.389 250.514C170.181 251.056 169.815 251.66 169.293 252.326C168.771 252.988 168.045 253.79 167.116 254.735L164.081 257.912V258.024H170.956V260H160.904ZM173.783 260V258.33L178.951 252.975C179.502 252.393 179.957 251.884 180.315 251.446C180.678 251.004 180.949 250.584 181.128 250.186C181.307 249.788 181.397 249.366 181.397 248.918C181.397 248.411 181.277 247.974 181.039 247.606C180.8 247.233 180.474 246.947 180.062 246.748C179.649 246.544 179.184 246.442 178.667 246.442C178.12 246.442 177.643 246.554 177.235 246.778C176.828 247.002 176.514 247.317 176.296 247.725C176.077 248.133 175.968 248.61 175.968 249.157H173.768C173.768 248.227 173.981 247.414 174.409 246.718C174.837 246.022 175.423 245.483 176.169 245.1C176.915 244.712 177.762 244.518 178.712 244.518C179.671 244.518 180.517 244.71 181.247 245.093C181.983 245.471 182.557 245.988 182.97 246.644C183.383 247.295 183.589 248.031 183.589 248.851C183.589 249.418 183.482 249.972 183.268 250.514C183.06 251.056 182.694 251.66 182.172 252.326C181.65 252.988 180.924 253.79 179.995 254.735L176.959 257.912V258.024H183.835V260H173.783ZM192.428 260V244.727H202.003V246.711H194.732V251.364H201.504V253.341H194.732V258.016H202.093V260H192.428ZM217.408 244.727V260H215.29L207.527 248.799H207.386V260H205.081V244.727H207.214L214.985 255.943H215.126V244.727H217.408ZM225.714 260H220.77V244.727H225.871C227.367 244.727 228.652 245.033 229.726 245.645C230.8 246.251 231.623 247.124 232.194 248.262C232.771 249.396 233.059 250.755 233.059 252.341C233.059 253.932 232.769 255.299 232.187 256.443C231.61 257.586 230.775 258.466 229.681 259.083C228.588 259.694 227.265 260 225.714 260ZM223.074 257.987H225.587C226.751 257.987 227.718 257.768 228.488 257.33C229.259 256.888 229.835 256.249 230.218 255.414C230.601 254.574 230.792 253.549 230.792 252.341C230.792 251.143 230.601 250.126 230.218 249.291C229.84 248.456 229.276 247.822 228.525 247.39C227.775 246.957 226.843 246.741 225.729 246.741H223.074V257.987ZM241.483 244.727H244.279L249.141 256.599H249.32L254.183 244.727H256.979V260H254.787V248.948H254.645L250.141 259.978H248.321L243.817 248.941H243.675V260H241.483V244.727ZM265.087 260.231C263.959 260.231 262.987 259.99 262.171 259.508C261.361 259.021 260.734 258.337 260.292 257.457C259.854 256.572 259.636 255.536 259.636 254.347C259.636 253.174 259.854 252.14 260.292 251.245C260.734 250.35 261.351 249.652 262.141 249.15C262.937 248.647 263.867 248.396 264.93 248.396C265.577 248.396 266.203 248.503 266.81 248.717C267.416 248.931 267.961 249.266 268.443 249.724C268.925 250.181 269.305 250.775 269.584 251.506C269.862 252.232 270.002 253.114 270.002 254.153V254.944H260.896V253.273H267.816C267.816 252.687 267.697 252.167 267.459 251.715C267.22 251.257 266.884 250.897 266.452 250.634C266.024 250.37 265.522 250.238 264.945 250.238C264.319 250.238 263.772 250.392 263.305 250.701C262.842 251.004 262.484 251.402 262.231 251.894C261.982 252.381 261.858 252.911 261.858 253.482V254.787C261.858 255.553 261.992 256.204 262.261 256.741C262.534 257.278 262.915 257.688 263.402 257.972C263.889 258.25 264.458 258.389 265.109 258.389C265.532 258.389 265.917 258.33 266.265 258.21C266.613 258.086 266.914 257.902 267.168 257.658C267.421 257.415 267.615 257.114 267.749 256.756L269.86 257.136C269.691 257.758 269.388 258.302 268.95 258.77C268.517 259.232 267.973 259.592 267.317 259.851C266.666 260.104 265.922 260.231 265.087 260.231ZM276.763 260.224C275.839 260.224 275.013 259.988 274.288 259.515C273.567 259.038 273 258.359 272.587 257.479C272.18 256.594 271.976 255.533 271.976 254.295C271.976 253.057 272.182 251.998 272.595 251.118C273.012 250.238 273.584 249.565 274.31 249.097C275.036 248.63 275.859 248.396 276.778 248.396C277.489 248.396 278.061 248.516 278.494 248.754C278.931 248.988 279.269 249.261 279.508 249.575C279.751 249.888 279.94 250.164 280.075 250.402H280.209V244.727H282.439V260H280.261V258.218H280.075C279.94 258.461 279.746 258.74 279.493 259.053C279.244 259.366 278.901 259.64 278.464 259.873C278.026 260.107 277.46 260.224 276.763 260.224ZM277.256 258.322C277.897 258.322 278.439 258.153 278.881 257.815C279.329 257.472 279.667 256.997 279.896 256.391C280.129 255.784 280.246 255.078 280.246 254.273C280.246 253.477 280.132 252.781 279.903 252.185C279.674 251.588 279.339 251.123 278.896 250.79C278.454 250.457 277.907 250.29 277.256 250.29C276.585 250.29 276.025 250.464 275.578 250.812C275.13 251.161 274.792 251.635 274.564 252.237C274.34 252.838 274.228 253.517 274.228 254.273C274.228 255.038 274.342 255.727 274.571 256.338C274.8 256.95 275.138 257.435 275.585 257.793C276.038 258.146 276.594 258.322 277.256 258.322ZM285.621 260V248.545H287.851V260H285.621ZM286.747 246.778C286.359 246.778 286.026 246.649 285.748 246.39C285.474 246.127 285.338 245.814 285.338 245.451C285.338 245.083 285.474 244.77 285.748 244.511C286.026 244.248 286.359 244.116 286.747 244.116C287.135 244.116 287.465 244.248 287.739 244.511C288.017 244.77 288.157 245.083 288.157 245.451C288.157 245.814 288.017 246.127 287.739 246.39C287.465 246.649 287.135 246.778 286.747 246.778ZM294.184 260.254C293.458 260.254 292.802 260.119 292.215 259.851C291.629 259.577 291.164 259.182 290.821 258.665C290.483 258.148 290.314 257.514 290.314 256.763C290.314 256.117 290.438 255.585 290.686 255.168C290.935 254.75 291.271 254.419 291.693 254.176C292.116 253.932 292.588 253.748 293.11 253.624C293.632 253.5 294.164 253.405 294.706 253.341C295.392 253.261 295.949 253.196 296.376 253.147C296.804 253.092 297.115 253.005 297.309 252.886C297.502 252.766 297.599 252.572 297.599 252.304V252.252C297.599 251.6 297.415 251.096 297.048 250.738C296.685 250.38 296.143 250.201 295.422 250.201C294.671 250.201 294.08 250.368 293.647 250.701C293.219 251.029 292.924 251.394 292.76 251.797L290.664 251.32C290.913 250.624 291.276 250.062 291.753 249.634C292.235 249.202 292.789 248.888 293.416 248.695C294.042 248.496 294.701 248.396 295.392 248.396C295.849 248.396 296.334 248.451 296.846 248.56C297.363 248.665 297.846 248.859 298.293 249.142C298.745 249.425 299.116 249.831 299.404 250.358C299.692 250.88 299.837 251.558 299.837 252.393V260H297.659V258.434H297.57C297.425 258.722 297.209 259.006 296.921 259.284C296.632 259.562 296.262 259.794 295.81 259.978C295.357 260.162 294.815 260.254 294.184 260.254ZM294.669 258.464C295.285 258.464 295.812 258.342 296.25 258.098C296.692 257.855 297.028 257.537 297.256 257.144C297.49 256.746 297.607 256.321 297.607 255.869V254.392C297.527 254.472 297.373 254.546 297.145 254.616C296.921 254.68 296.665 254.738 296.376 254.787C296.088 254.832 295.807 254.874 295.534 254.914C295.26 254.949 295.032 254.979 294.848 255.004C294.415 255.058 294.02 255.15 293.662 255.279C293.309 255.409 293.026 255.595 292.812 255.839C292.603 256.077 292.499 256.396 292.499 256.793C292.499 257.345 292.702 257.763 293.11 258.046C293.518 258.325 294.037 258.464 294.669 258.464ZM320.87 244.727V260H318.752L310.989 248.799H310.847V260H308.543V244.727H310.676L318.447 255.943H318.588V244.727H320.87ZM328.989 260.231C327.861 260.231 326.889 259.99 326.074 259.508C325.263 259.021 324.637 258.337 324.194 257.457C323.757 256.572 323.538 255.536 323.538 254.347C323.538 253.174 323.757 252.14 324.194 251.245C324.637 250.35 325.253 249.652 326.044 249.15C326.839 248.647 327.769 248.396 328.833 248.396C329.479 248.396 330.106 248.503 330.712 248.717C331.319 248.931 331.863 249.266 332.345 249.724C332.828 250.181 333.208 250.775 333.486 251.506C333.765 252.232 333.904 253.114 333.904 254.153V254.944H324.798V253.273H331.719C331.719 252.687 331.6 252.167 331.361 251.715C331.122 251.257 330.787 250.897 330.354 250.634C329.927 250.37 329.424 250.238 328.848 250.238C328.221 250.238 327.674 250.392 327.207 250.701C326.745 251.004 326.387 251.402 326.133 251.894C325.885 252.381 325.76 252.911 325.76 253.482V254.787C325.76 255.553 325.895 256.204 326.163 256.741C326.437 257.278 326.817 257.688 327.304 257.972C327.791 258.25 328.361 258.389 329.012 258.389C329.434 258.389 329.82 258.33 330.168 258.21C330.516 258.086 330.816 257.902 331.07 257.658C331.324 257.415 331.517 257.114 331.652 256.756L333.762 257.136C333.593 257.758 333.29 258.302 332.852 258.77C332.42 259.232 331.875 259.592 331.219 259.851C330.568 260.104 329.825 260.231 328.989 260.231ZM341.725 248.545V250.335H335.468V248.545H341.725ZM337.146 245.801H339.376V256.637C339.376 257.069 339.44 257.395 339.57 257.614C339.699 257.827 339.865 257.974 340.069 258.054C340.278 258.128 340.504 258.165 340.748 258.165C340.927 258.165 341.083 258.153 341.218 258.128C341.352 258.103 341.456 258.083 341.531 258.069L341.934 259.911C341.804 259.96 341.62 260.01 341.382 260.06C341.143 260.114 340.845 260.144 340.487 260.149C339.9 260.159 339.353 260.055 338.846 259.836C338.339 259.617 337.929 259.279 337.616 258.822C337.303 258.364 337.146 257.79 337.146 257.099V245.801ZM346.675 260L343.304 248.545H345.608L347.853 256.957H347.965L350.217 248.545H352.521L354.758 256.92H354.87L357.1 248.545H359.404L356.041 260H353.767L351.44 251.73H351.268L348.942 260H346.675ZM365.997 260.231C364.923 260.231 363.986 259.985 363.185 259.493C362.385 259.001 361.763 258.312 361.321 257.427C360.878 256.542 360.657 255.508 360.657 254.325C360.657 253.137 360.878 252.098 361.321 251.208C361.763 250.318 362.385 249.627 363.185 249.135C363.986 248.642 364.923 248.396 365.997 248.396C367.071 248.396 368.008 248.642 368.808 249.135C369.609 249.627 370.23 250.318 370.672 251.208C371.115 252.098 371.336 253.137 371.336 254.325C371.336 255.508 371.115 256.542 370.672 257.427C370.23 258.312 369.609 259.001 368.808 259.493C368.008 259.985 367.071 260.231 365.997 260.231ZM366.004 258.359C366.7 258.359 367.277 258.175 367.734 257.808C368.192 257.44 368.53 256.95 368.748 256.338C368.972 255.727 369.084 255.053 369.084 254.317C369.084 253.587 368.972 252.915 368.748 252.304C368.53 251.687 368.192 251.193 367.734 250.82C367.277 250.447 366.7 250.261 366.004 250.261C365.303 250.261 364.722 250.447 364.259 250.82C363.802 251.193 363.461 251.687 363.237 252.304C363.019 252.915 362.909 253.587 362.909 254.317C362.909 255.053 363.019 255.727 363.237 256.338C363.461 256.95 363.802 257.44 364.259 257.808C364.722 258.175 365.303 258.359 366.004 258.359ZM373.825 260V248.545H375.98V250.365H376.1C376.308 249.749 376.676 249.264 377.203 248.911C377.735 248.553 378.337 248.374 379.008 248.374C379.147 248.374 379.311 248.379 379.5 248.389C379.694 248.399 379.846 248.411 379.955 248.426V250.559C379.866 250.534 379.706 250.507 379.478 250.477C379.249 250.442 379.02 250.425 378.792 250.425C378.265 250.425 377.795 250.537 377.382 250.76C376.975 250.979 376.651 251.285 376.413 251.678C376.174 252.065 376.055 252.508 376.055 253.005V260H373.825ZM383.935 256.115L383.921 253.393H384.308L388.872 248.545H391.542L386.337 254.064H385.986L383.935 256.115ZM381.885 260V244.727H384.114V260H381.885ZM389.118 260L385.017 254.556L386.553 252.998L391.855 260H389.118Z" fill="white"/>
<path d="M259.53 213.037L155.688 165.609L209.158 48.4279L313 95.8564L259.53 213.037Z" fill="#F2F2F2"/>
<path d="M275.349 144.961L196.737 109.057C196.589 108.989 196.474 108.865 196.417 108.713C196.36 108.56 196.366 108.391 196.434 108.243C196.501 108.095 196.625 107.98 196.777 107.923C196.93 107.866 197.099 107.872 197.247 107.939L275.858 143.844C276.006 143.912 276.122 144.036 276.178 144.188C276.235 144.341 276.229 144.51 276.162 144.658C276.094 144.806 275.971 144.921 275.818 144.978C275.666 145.035 275.497 145.029 275.349 144.961V144.961Z" fill="white"/>
<path d="M279.72 135.381L201.108 99.4768C201.035 99.4433 200.969 99.3957 200.914 99.3367C200.859 99.2777 200.816 99.2084 200.788 99.1329C200.76 99.0573 200.747 98.977 200.75 98.8964C200.753 98.8158 200.771 98.7366 200.805 98.6632C200.838 98.5899 200.886 98.5238 200.945 98.4689C201.004 98.4139 201.073 98.3711 201.149 98.3429C201.224 98.3148 201.304 98.3017 201.385 98.3046C201.466 98.3075 201.545 98.3262 201.618 98.3596L280.23 134.264C280.303 134.298 280.369 134.345 280.424 134.404C280.479 134.463 280.522 134.533 280.55 134.608C280.578 134.684 280.591 134.764 280.588 134.845C280.585 134.925 280.567 135.005 280.533 135.078C280.5 135.151 280.452 135.217 280.393 135.272C280.334 135.327 280.265 135.37 280.189 135.398C280.114 135.426 280.034 135.439 279.953 135.437C279.872 135.434 279.793 135.415 279.72 135.381V135.381Z" fill="white"/>
<path d="M284.091 125.802L205.48 89.8968C205.406 89.8633 205.34 89.8157 205.285 89.7567C205.231 89.6977 205.188 89.6285 205.16 89.5529C205.131 89.4774 205.118 89.397 205.121 89.3164C205.124 89.2358 205.143 89.1566 205.176 89.0833C205.21 89.0099 205.257 88.9439 205.316 88.8889C205.375 88.834 205.445 88.7912 205.52 88.763C205.596 88.7348 205.676 88.7218 205.756 88.7246C205.837 88.7275 205.916 88.7462 205.989 88.7797L284.601 124.684C284.749 124.752 284.864 124.876 284.92 125.028C284.977 125.181 284.971 125.35 284.903 125.497C284.836 125.645 284.712 125.761 284.56 125.818C284.408 125.875 284.239 125.869 284.091 125.802V125.802Z" fill="white"/>
<path d="M288.463 116.222L209.851 80.3169C209.778 80.2834 209.712 80.2358 209.657 80.1768C209.602 80.1178 209.559 80.0485 209.531 79.9729C209.503 79.8974 209.49 79.8171 209.493 79.7365C209.495 79.6559 209.514 79.5767 209.548 79.5033C209.581 79.43 209.629 79.3639 209.688 79.309C209.747 79.254 209.816 79.2112 209.891 79.183C209.967 79.1549 210.047 79.1418 210.128 79.1447C210.208 79.1475 210.287 79.1663 210.361 79.1997L288.972 115.104C289.046 115.138 289.112 115.186 289.167 115.245C289.222 115.304 289.264 115.373 289.293 115.448C289.321 115.524 289.334 115.604 289.331 115.685C289.328 115.765 289.309 115.845 289.276 115.918C289.242 115.991 289.195 116.057 289.136 116.112C289.077 116.167 289.008 116.21 288.932 116.238C288.857 116.266 288.776 116.28 288.696 116.277C288.615 116.274 288.536 116.255 288.463 116.222V116.222Z" fill="white"/>
<path d="M271.398 153.619L192.787 117.714C192.713 117.681 192.647 117.633 192.592 117.574C192.537 117.515 192.495 117.446 192.466 117.37C192.438 117.295 192.425 117.215 192.428 117.134C192.431 117.053 192.45 116.974 192.483 116.901C192.517 116.827 192.564 116.761 192.623 116.706C192.682 116.651 192.751 116.609 192.827 116.58C192.902 116.552 192.983 116.539 193.063 116.542C193.144 116.545 193.223 116.564 193.296 116.597L271.908 152.502C272.056 152.57 272.171 152.693 272.228 152.846C272.285 152.998 272.279 153.167 272.211 153.315C272.144 153.464 272.02 153.579 271.868 153.636C271.715 153.693 271.546 153.687 271.398 153.619V153.619Z" fill="white"/>
<path d="M284.525 102.169L223.12 74.1228C222.774 73.9739 222.495 73.7032 222.336 73.3621C222.177 73.0209 222.149 72.6332 222.257 72.2726C222.323 72.0766 222.429 71.8967 222.569 71.7445C222.709 71.5923 222.88 71.4711 223.069 71.3889C223.259 71.3067 223.464 71.2653 223.67 71.2673C223.877 71.2693 224.081 71.3147 224.269 71.4006L285.656 99.4382C286.008 99.5878 286.292 99.8625 286.454 100.209C286.615 100.556 286.643 100.95 286.531 101.316C286.463 101.509 286.355 101.687 286.215 101.836C286.075 101.986 285.905 102.104 285.716 102.185C285.527 102.265 285.324 102.305 285.119 102.302C284.914 102.299 284.712 102.254 284.525 102.169V102.169Z" fill="white"/>
<path d="M48.2521 95.8564L152.095 48.4279L205.565 165.609L101.722 213.037L48.2521 95.8564Z" fill="#F2F2F2"/>
<path d="M85.9034 144.961L164.515 109.057C164.588 109.023 164.654 108.976 164.709 108.917C164.764 108.857 164.807 108.788 164.835 108.713C164.863 108.637 164.876 108.557 164.873 108.476C164.871 108.396 164.852 108.316 164.818 108.243C164.785 108.17 164.737 108.104 164.678 108.049C164.619 107.994 164.55 107.951 164.475 107.923C164.399 107.895 164.319 107.882 164.238 107.884C164.158 107.887 164.079 107.906 164.005 107.939L85.3937 143.844C85.3204 143.878 85.2544 143.925 85.1995 143.984C85.1445 144.043 85.1017 144.113 85.0736 144.188C85.0454 144.264 85.0324 144.344 85.0352 144.425C85.0381 144.505 85.0568 144.584 85.0903 144.658C85.1238 144.731 85.1713 144.797 85.2303 144.852C85.2893 144.907 85.3585 144.95 85.434 144.978C85.5095 145.006 85.5898 145.019 85.6704 145.016C85.7509 145.014 85.8301 144.995 85.9034 144.961V144.961Z" fill="white"/>
<path d="M81.5321 135.381L160.144 99.4768C160.292 99.4091 160.407 99.2854 160.464 99.1329C160.521 98.9803 160.515 98.8114 160.447 98.6632C160.38 98.5151 160.256 98.3999 160.103 98.3429C159.951 98.286 159.782 98.292 159.634 98.3596L81.0224 134.264C80.9491 134.298 80.883 134.345 80.8281 134.404C80.7732 134.463 80.7304 134.533 80.7022 134.608C80.6741 134.684 80.661 134.764 80.6639 134.845C80.6668 134.925 80.6855 135.005 80.7189 135.078C80.7524 135.151 80.8 135.217 80.859 135.272C80.9179 135.327 80.9872 135.37 81.0627 135.398C81.1382 135.426 81.2185 135.439 81.2991 135.437C81.3796 135.434 81.4588 135.415 81.5321 135.381H81.5321Z" fill="white"/>
<path d="M77.1608 125.802L155.772 89.8968C155.92 89.8292 156.036 89.7055 156.093 89.5529C156.149 89.4003 156.143 89.2314 156.076 89.0833C156.008 88.9351 155.885 88.8199 155.732 88.763C155.58 88.7061 155.411 88.7121 155.263 88.7797L76.651 124.684C76.5031 124.752 76.3882 124.876 76.3314 125.028C76.2746 125.181 76.2807 125.35 76.3482 125.498C76.4158 125.646 76.5393 125.761 76.6916 125.818C76.844 125.875 77.0127 125.869 77.1608 125.802V125.802Z" fill="white"/>
<path d="M72.7895 116.222L151.401 80.3169C151.474 80.2834 151.54 80.2358 151.595 80.1768C151.65 80.1178 151.693 80.0485 151.721 79.9729C151.749 79.8974 151.762 79.8171 151.76 79.7365C151.757 79.6559 151.738 79.5767 151.705 79.5033C151.671 79.43 151.623 79.3639 151.564 79.309C151.506 79.254 151.436 79.2112 151.361 79.183C151.285 79.1548 151.205 79.1418 151.124 79.1447C151.044 79.1475 150.965 79.1663 150.891 79.1997L72.2797 115.104C72.1317 115.172 72.0165 115.296 71.9596 115.448C71.9027 115.601 71.9087 115.77 71.9763 115.918C72.0439 116.066 72.1676 116.181 72.3201 116.238C72.4726 116.295 72.6414 116.289 72.7895 116.222H72.7895Z" fill="white"/>
<path d="M89.854 153.619L168.466 117.714C168.614 117.647 168.729 117.523 168.786 117.37C168.843 117.218 168.837 117.049 168.769 116.901C168.701 116.753 168.578 116.637 168.425 116.58C168.273 116.524 168.104 116.53 167.956 116.597L89.3442 152.502C89.2709 152.535 89.2049 152.583 89.15 152.642C89.095 152.701 89.0522 152.77 89.0241 152.846C88.9959 152.921 88.9829 153.002 88.9857 153.082C88.9886 153.163 89.0073 153.242 89.0408 153.315C89.0743 153.389 89.1218 153.455 89.1808 153.51C89.2398 153.565 89.309 153.608 89.3845 153.636C89.46 153.664 89.5403 153.677 89.6209 153.674C89.7014 153.671 89.7806 153.653 89.8539 153.619H89.854Z" fill="white"/>
<path d="M76.7268 102.169L138.132 74.1228C138.478 73.9739 138.757 73.7032 138.916 73.3621C139.075 73.0209 139.103 72.6332 138.995 72.2726C138.929 72.0766 138.823 71.8967 138.683 71.7445C138.543 71.5923 138.373 71.4711 138.183 71.3889C137.993 71.3067 137.788 71.2653 137.582 71.2673C137.375 71.2693 137.171 71.3147 136.983 71.4006L75.5959 99.4382C75.2441 99.5878 74.96 99.8625 74.7985 100.209C74.6369 100.556 74.6093 100.95 74.721 101.316C74.7891 101.509 74.8968 101.687 75.0371 101.836C75.1774 101.986 75.3473 102.104 75.536 102.185C75.7247 102.265 75.928 102.305 76.133 102.302C76.3381 102.299 76.5403 102.254 76.7268 102.169V102.169Z" fill="white"/>
<path d="M10.3806 234.222C11.0362 224.061 16.6948 213.752 26.1149 209.899C22.9388 220.506 23.6149 231.895 28.0238 242.05C29.7383 245.961 32.0522 250.132 30.9014 254.244C30.1855 256.803 28.184 258.846 25.8907 260.186C23.5972 261.526 21.007 262.254 18.4489 262.968L17.9639 263.42C13.2991 254.371 9.72498 244.382 10.3806 234.222Z" fill="#F0F0F0"/>
<path d="M26.2216 210.084C20.9947 216.693 17.9821 224.782 17.6117 233.201C17.4998 235.012 17.6739 236.83 18.1277 238.587C18.625 240.284 19.5675 241.817 20.8572 243.026C22.0371 244.178 23.3774 245.22 24.2569 246.638C24.6963 247.371 24.9759 248.189 25.0773 249.037C25.1787 249.886 25.0998 250.747 24.8455 251.562C24.2648 253.612 22.9827 255.33 21.6705 256.967C20.2136 258.785 18.6715 260.65 18.1443 262.976C18.0804 263.258 17.647 263.142 17.7108 262.861C18.628 258.814 22.3545 256.324 23.9831 252.631C24.743 250.908 24.9885 248.945 24.0785 247.228C23.2827 245.726 21.9015 244.651 20.6967 243.495C19.4213 242.334 18.4495 240.877 17.8662 239.254C17.3245 237.526 17.0807 235.718 17.1451 233.908C17.2254 229.831 17.9458 225.792 19.2801 221.939C20.7786 217.533 23.0193 213.416 25.9054 209.766C26.0841 209.54 26.3992 209.86 26.2216 210.084V210.084Z" fill="white"/>
<path d="M17.5715 230.483C16.168 230.229 14.9004 229.485 13.9951 228.382C13.0898 227.279 12.6058 225.891 12.6294 224.464C12.6309 224.406 12.6549 224.35 12.6964 224.309C12.7379 224.269 12.7935 224.246 12.8517 224.245C12.9099 224.244 12.966 224.267 13.0082 224.307C13.0504 224.347 13.0755 224.401 13.0781 224.46C13.0536 225.788 13.5046 227.082 14.3497 228.107C15.1948 229.132 16.3783 229.821 17.6866 230.05C17.9709 230.1 17.8541 230.533 17.5715 230.483L17.5715 230.483Z" fill="white"/>
<path d="M20.1821 242.521C22.5925 240.88 24.296 238.39 24.9531 235.548C25.018 235.267 25.4514 235.382 25.3866 235.663C24.6973 238.62 22.9193 241.207 20.4072 242.909C20.1677 243.071 19.9439 242.682 20.1821 242.521V242.521Z" fill="white"/>
<path d="M21.2192 217.933C21.7417 218.144 22.3086 218.222 22.8689 218.16C23.4292 218.099 23.9654 217.898 24.4293 217.578C24.6666 217.413 24.8902 217.802 24.6544 217.966C24.1402 218.318 23.5478 218.538 22.9289 218.608C22.31 218.678 21.6835 218.595 21.104 218.366C21.0476 218.349 20.9997 218.312 20.9702 218.261C20.9406 218.21 20.9315 218.149 20.9448 218.092C20.9604 218.034 20.9979 217.986 21.0493 217.956C21.1006 217.926 21.1617 217.918 21.2192 217.933V217.933Z" fill="white"/>
<path d="M56.4901 226.175C56.3448 226.282 56.1995 226.389 56.0542 226.501C54.1084 227.953 52.2836 229.561 50.5981 231.309C50.4656 231.442 50.3334 231.579 50.205 231.715C46.189 235.97 42.9973 240.934 40.7924 246.354C39.917 248.511 39.2069 250.733 38.6683 252.998C37.9246 256.127 37.3672 259.578 35.6834 262.201C35.5108 262.477 35.3214 262.741 35.1161 262.994L18.553 263.977C18.5142 263.96 18.4755 263.947 18.4366 263.931L17.777 264C17.7967 263.881 17.8196 263.758 17.8392 263.64C17.8503 263.571 17.8651 263.502 17.8762 263.433C17.8847 263.387 17.8935 263.341 17.8986 263.299C17.9014 263.283 17.9043 263.268 17.9074 263.256C17.9125 263.214 17.9217 263.176 17.927 263.137C18.0531 262.451 18.1843 261.764 18.3205 261.077C18.3202 261.073 18.3202 261.073 18.3237 261.069C19.3749 255.835 20.872 250.643 23.1092 245.844C23.1766 245.7 23.2435 245.552 23.3185 245.407C24.3389 243.249 25.5339 241.178 26.8915 239.215C27.6383 238.143 28.4389 237.109 29.2903 236.117C31.495 233.56 34.088 231.365 36.9744 229.614C42.7289 226.123 49.5351 224.512 55.9975 226.052C56.1628 226.092 56.3245 226.132 56.4901 226.175Z" fill="#F0F0F0"/>
<path d="M56.4653 226.387C48.3148 228.516 41.0417 233.16 35.6793 239.659C34.5 241.038 33.5454 242.594 32.8504 244.27C32.2262 245.924 32.0562 247.716 32.3582 249.459C32.6071 251.089 33.0504 252.728 32.8989 254.39C32.8087 255.24 32.5399 256.062 32.1102 256.8C31.6806 257.539 31.0997 258.178 30.4056 258.677C28.7086 259.963 26.6507 260.563 24.6179 261.08C22.3609 261.653 20.0074 262.213 18.1866 263.753C17.9659 263.94 17.6895 263.586 17.9098 263.4C21.0777 260.721 25.5511 260.978 29.0738 259.011C30.7175 258.093 32.0947 256.673 32.4016 254.754C32.6699 253.075 32.2142 251.385 31.9479 249.736C31.6284 248.041 31.7288 246.293 32.2402 244.645C32.8476 242.939 33.7408 241.349 34.8815 239.942C37.399 236.735 40.4049 233.944 43.789 231.672C47.6369 229.056 51.9036 227.119 56.4045 225.943C56.6831 225.87 56.7421 226.315 56.4653 226.387V226.387Z" fill="white"/>
<path d="M37.2828 237.464C36.315 236.416 35.7511 235.058 35.6918 233.632C35.6326 232.207 36.0818 230.806 36.9593 229.681C37.1376 229.454 37.4986 229.721 37.32 229.948C36.501 230.994 36.0826 232.299 36.1405 233.626C36.1984 234.954 36.7287 236.217 37.6357 237.188C37.8326 237.399 37.4785 237.674 37.2828 237.464H37.2828Z" fill="white"/>
<path d="M32.1231 248.648C35.0352 248.79 37.8937 247.828 40.1286 245.955C40.3498 245.769 40.6264 246.122 40.4054 246.308C38.0761 248.253 35.0994 249.248 32.0693 249.094C31.7805 249.079 31.8359 248.634 32.1231 248.648V248.648Z" fill="white"/>
<path d="M47.748 229.641C48.038 230.124 48.4435 230.528 48.9282 230.816C49.4128 231.104 49.9613 231.268 50.5245 231.291C50.8134 231.302 50.7577 231.748 50.4707 231.737C49.8486 231.708 49.243 231.527 48.7068 231.21C48.1707 230.893 47.7203 230.449 47.3951 229.918C47.3602 229.87 47.3448 229.811 47.3518 229.753C47.3589 229.694 47.388 229.64 47.4332 229.603C47.4801 229.566 47.5395 229.55 47.5984 229.557C47.6574 229.564 47.7112 229.594 47.748 229.641V229.641Z" fill="white"/>
<path d="M257.886 214.022H102.61V38.8019H257.886V214.022Z" fill="white"/>
<path d="M257.886 214.022H102.61V38.8019H257.886V214.022ZM103.445 213.187H257.051V39.6371H103.445L103.445 213.187Z" fill="#CACACA"/>
<path d="M239.022 120.844H121.474C121.365 120.844 121.256 120.823 121.155 120.781C121.053 120.739 120.961 120.677 120.884 120.6C120.806 120.522 120.745 120.43 120.703 120.329C120.661 120.227 120.639 120.119 120.639 120.009C120.639 119.899 120.661 119.791 120.703 119.689C120.745 119.588 120.806 119.496 120.884 119.418C120.961 119.341 121.053 119.279 121.155 119.237C121.256 119.195 121.365 119.174 121.474 119.174H239.022C239.243 119.174 239.456 119.262 239.612 119.418C239.769 119.575 239.857 119.788 239.857 120.009C239.857 120.231 239.769 120.443 239.612 120.6C239.456 120.756 239.243 120.844 239.022 120.844V120.844Z" fill="#E4E4E4"/>
<path d="M239.022 106.519H121.474C121.253 106.519 121.04 106.431 120.884 106.275C120.727 106.118 120.639 105.906 120.639 105.684C120.639 105.463 120.727 105.25 120.884 105.094C121.04 104.937 121.253 104.849 121.474 104.849H239.022C239.243 104.849 239.456 104.937 239.612 105.094C239.769 105.25 239.857 105.463 239.857 105.684C239.857 105.906 239.769 106.118 239.612 106.275C239.456 106.431 239.243 106.519 239.022 106.519V106.519Z" fill="#E4E4E4"/>
<path d="M239.022 92.1946H121.474C121.365 92.1946 121.256 92.173 121.155 92.131C121.053 92.0891 120.961 92.0275 120.884 91.95C120.806 91.8724 120.745 91.7803 120.703 91.679C120.661 91.5777 120.639 91.4691 120.639 91.3594C120.639 91.2497 120.661 91.1411 120.703 91.0398C120.745 90.9384 120.806 90.8464 120.884 90.7688C120.961 90.6912 121.053 90.6297 121.155 90.5877C121.256 90.5458 121.365 90.5242 121.474 90.5242H239.022C239.243 90.5242 239.456 90.6122 239.612 90.7688C239.769 90.9254 239.857 91.1379 239.857 91.3594C239.857 91.5809 239.769 91.7933 239.612 91.95C239.456 92.1066 239.243 92.1946 239.022 92.1946V92.1946Z" fill="#E4E4E4"/>
<path d="M239.022 77.8698H121.474C121.253 77.8698 121.04 77.7818 120.884 77.6251C120.727 77.4685 120.639 77.2561 120.639 77.0346C120.639 76.813 120.727 76.6006 120.884 76.444C121.04 76.2873 121.253 76.1993 121.474 76.1993H239.022C239.243 76.1993 239.456 76.2873 239.612 76.444C239.769 76.6006 239.857 76.813 239.857 77.0346C239.857 77.2561 239.769 77.4685 239.612 77.6251C239.456 77.7818 239.243 77.8698 239.022 77.8698V77.8698Z" fill="#E4E4E4"/>
<path d="M239.022 133.79H121.474C121.253 133.79 121.04 133.702 120.884 133.545C120.727 133.389 120.639 133.176 120.639 132.955C120.639 132.733 120.727 132.521 120.884 132.364C121.04 132.208 121.253 132.12 121.474 132.12H239.022C239.243 132.12 239.456 132.208 239.612 132.364C239.769 132.521 239.857 132.733 239.857 132.955C239.857 133.176 239.769 133.389 239.612 133.545C239.456 133.702 239.243 133.79 239.022 133.79V133.79Z" fill="#E4E4E4"/>
<path d="M239.022 198.058H121.474C121.253 198.058 121.04 197.97 120.884 197.813C120.727 197.657 120.639 197.444 120.639 197.223C120.639 197.001 120.727 196.789 120.884 196.632C121.04 196.476 121.253 196.388 121.474 196.388H239.022C239.243 196.388 239.456 196.476 239.612 196.632C239.769 196.789 239.857 197.001 239.857 197.223C239.857 197.444 239.769 197.657 239.612 197.813C239.456 197.97 239.243 198.058 239.022 198.058V198.058Z" fill="#E4E4E4"/>
<path d="M210.864 184.651H149.633C149.223 184.65 148.831 184.488 148.541 184.198C148.252 183.909 148.089 183.516 148.089 183.107V147.071C148.089 146.662 148.252 146.269 148.541 145.98C148.831 145.69 149.223 145.527 149.633 145.527H210.864C211.273 145.527 211.665 145.69 211.955 145.98C212.244 146.269 212.407 146.662 212.407 147.071V183.107C212.407 183.516 212.244 183.909 211.955 184.198C211.665 184.488 211.273 184.65 210.864 184.651V184.651Z" fill="white"/>
<path d="M190.416 164.065C190.104 163.731 189.728 163.463 189.311 163.277C188.894 163.092 188.444 162.992 187.987 162.983C187.531 162.975 187.077 163.059 186.654 163.23C186.23 163.4 185.846 163.655 185.522 163.977L168.29 181.217C167.835 181.672 167.218 181.927 166.575 181.928C165.932 181.929 165.315 181.676 164.858 181.223L162.306 178.674C161.99 178.359 161.616 178.108 161.203 177.937C160.791 177.766 160.349 177.678 159.903 177.678C159.457 177.678 159.015 177.766 158.602 177.937C158.19 178.108 157.815 178.359 157.5 178.674L152.56 183.621H207.936V182.916L190.416 164.065Z" fill="#6C63FF"/>
<path d="M210.864 184.651H149.633C149.223 184.65 148.831 184.488 148.541 184.198C148.252 183.909 148.089 183.516 148.089 183.107V147.071C148.089 146.662 148.252 146.269 148.541 145.98C148.831 145.69 149.223 145.527 149.633 145.527H210.864C211.273 145.527 211.665 145.69 211.955 145.98C212.244 146.269 212.407 146.662 212.407 147.071V183.107C212.407 183.516 212.244 183.909 211.955 184.198C211.665 184.488 211.273 184.65 210.864 184.651V184.651ZM149.633 146.556C149.496 146.556 149.365 146.611 149.269 146.707C149.172 146.804 149.118 146.935 149.118 147.071V183.107C149.118 183.243 149.172 183.374 149.269 183.47C149.365 183.567 149.496 183.621 149.633 183.621H210.864C211 183.621 211.131 183.567 211.227 183.47C211.324 183.374 211.378 183.243 211.378 183.107V147.071C211.378 146.935 211.324 146.804 211.227 146.707C211.131 146.611 211 146.556 210.864 146.556L149.633 146.556Z" fill="#3F3D56"/>
<path d="M63.2461 178.628C63.4013 178.08 63.4347 177.505 63.3438 176.943C63.2529 176.381 63.04 175.846 62.7201 175.376C62.4001 174.905 61.981 174.51 61.492 174.219C61.0031 173.928 60.4564 173.748 59.8903 173.691L56.682 160.234L51.7645 165.476L55.5651 177.452C55.5329 178.41 55.8529 179.346 56.4646 180.083C57.0762 180.821 57.937 181.308 58.8837 181.453C59.8305 181.598 60.7975 181.39 61.6015 180.87C62.4055 180.349 62.9907 179.551 63.2461 178.628Z" fill="#FFB6B6"/>
<path d="M54.6701 173.746C54.438 173.669 54.2247 173.544 54.0442 173.379C53.8637 173.213 53.7199 173.012 53.6223 172.788L46.8197 156.141C45.085 152.15 44.8583 147.664 46.1819 143.519L50.5408 129.859C50.607 129.124 50.8174 128.41 51.1598 127.756C51.5023 127.103 51.97 126.524 52.5364 126.052C53.1028 125.579 53.7566 125.223 54.4606 125.004C55.1646 124.785 55.9048 124.707 56.639 124.774C57.3732 124.841 58.087 125.053 58.7395 125.396C59.392 125.739 59.9704 126.208 60.4417 126.775C60.913 127.343 61.2679 127.997 61.4862 128.702C61.7044 129.406 61.7817 130.147 61.7136 130.881L55.933 152.878L59.8047 170.154C59.8653 170.507 59.8161 170.87 59.6638 171.194C59.5115 171.518 59.2635 171.787 58.9532 171.965L56.0833 173.606C55.7755 173.782 55.4214 173.859 55.0683 173.829C54.9327 173.817 54.7991 173.789 54.6701 173.746V173.746Z" fill="#E4E4E4"/>
<path d="M78.8648 259.04H83.6087L85.8659 240.732H78.8636L78.8648 259.04Z" fill="#FFB6B6"/>
<path d="M77.6545 257.49L86.9976 257.49H86.998C88.5771 257.49 90.0915 258.118 91.2081 259.235C92.3247 260.352 92.952 261.867 92.9521 263.447V263.64L77.6548 263.641L77.6545 257.49Z" fill="#2F2E41"/>
<path d="M52.1636 259.04H56.9075L59.1648 240.732H52.1625L52.1636 259.04Z" fill="#FFB6B6"/>
<path d="M50.9533 257.49L60.2964 257.49H60.2968C61.8759 257.49 63.3903 258.118 64.5069 259.235C65.6235 260.352 66.2508 261.867 66.251 263.447V263.64L50.9536 263.641L50.9533 257.49Z" fill="#2F2E41"/>
<path d="M81.7214 166.696L53.8993 164.247C53.8993 164.247 51.1505 181.795 51.5375 188.764C51.9245 195.733 52.3114 206.573 52.3114 206.573L49.2156 253.807L61.2118 252.258L62.7597 213.155L67.7904 191.861L73.595 218.962L77.4647 253.807L87.913 252.645L84.4302 210.445C84.4302 210.445 87.526 172.504 81.7214 166.696Z" fill="#2F2E41"/>
<path d="M70.4992 115.204C74.7736 115.204 78.2386 111.738 78.2386 107.461C78.2386 103.185 74.7736 99.7181 70.4992 99.7181C66.2248 99.7181 62.7597 103.185 62.7597 107.461C62.7597 111.738 66.2248 115.204 70.4992 115.204Z" fill="#FFB8B8"/>
<path d="M78.9746 124.751L73.4469 120.348C73.4469 120.348 67.4608 115.727 63.9493 119.144L62.3727 121.399C62.3727 121.399 53.4343 124.751 53.4343 129.009L53.8593 152.371C53.8593 152.371 50.7635 164.373 55.4072 165.148L82.4574 167.338L82.1084 145.015L78.9746 124.751Z" fill="#E4E4E4"/>
<path d="M64.5011 114.236C64.5011 114.236 56.3746 108.429 60.6313 101.46C63.5844 96.6257 69.7036 97.0083 73.1747 97.6962C74.1099 97.8689 74.989 98.2665 75.7364 98.8548C76.4837 99.4431 77.0769 100.204 77.4647 101.073C78.0452 102.428 78.0452 103.783 75.7233 103.783C71.0796 103.783 73.4015 107.268 73.4015 107.268C73.4015 107.268 70.3057 108.042 71.0796 110.752C71.8536 113.462 64.5011 114.236 64.5011 114.236Z" fill="#2F2E41"/>
<path d="M106.897 165.552C106.753 165.002 106.49 164.489 106.127 164.051C105.763 163.614 105.308 163.261 104.794 163.018C104.279 162.775 103.718 162.648 103.149 162.645C102.58 162.643 102.017 162.766 101.501 163.004L91.9071 153.041L90.3314 160.055L99.6835 168.441C100.142 169.283 100.893 169.927 101.794 170.251C102.695 170.576 103.684 170.558 104.573 170.202C105.462 169.846 106.19 169.176 106.618 168.319C107.047 167.462 107.146 166.477 106.897 165.552H106.897Z" fill="#FFB6B6"/>
<path d="M97.0317 165.704C96.7925 165.755 96.5452 165.755 96.3059 165.705C96.0665 165.654 95.8405 165.554 95.6425 165.41L81.3335 154.525C77.8135 151.968 75.3418 148.218 74.378 143.974L71.2004 129.992C70.8841 129.325 70.7023 128.603 70.6654 127.866C70.6285 127.129 70.7373 126.392 70.9854 125.697C71.2335 125.002 71.6162 124.363 72.1115 123.816C72.6069 123.269 73.2051 122.826 73.872 122.511C74.5389 122.195 75.2614 122.015 75.9981 121.979C76.7348 121.944 77.4713 122.054 78.1654 122.304C78.8595 122.553 79.4976 122.937 80.0432 123.434C80.5888 123.93 81.0311 124.53 81.3449 125.197L87.5286 147.084L99.6318 160C99.8631 160.273 100.005 160.611 100.038 160.968C100.071 161.324 99.9944 161.682 99.8176 161.993L98.1779 164.865C98.0019 165.172 97.7363 165.419 97.4165 165.572C97.2938 165.631 97.1647 165.675 97.0317 165.704Z" fill="#E4E4E4"/>
<path d="M293.58 11.6833H70.081C69.9951 11.683 69.9129 11.6486 69.8523 11.5878C69.7917 11.527 69.7577 11.4446 69.7577 11.3587C69.7577 11.2728 69.7917 11.1905 69.8523 11.1296C69.9129 11.0688 69.9951 11.0345 70.081 11.0342H293.58C293.666 11.0345 293.748 11.0688 293.808 11.1296C293.869 11.1905 293.903 11.2728 293.903 11.3587C293.903 11.4446 293.869 11.527 293.808 11.5878C293.748 11.6486 293.666 11.683 293.58 11.6833V11.6833Z" fill="#CACACA"/>
<path d="M77.3821 7.13977C79.3528 7.13977 80.9503 5.54148 80.9503 3.56989C80.9503 1.59829 79.3528 0 77.3821 0C75.4114 0 73.8139 1.59829 73.8139 3.56989C73.8139 5.54148 75.4114 7.13977 77.3821 7.13977Z" fill="#3F3D56"/>
<path d="M89.7086 7.13977C91.6792 7.13977 93.2768 5.54148 93.2768 3.56989C93.2768 1.59829 91.6792 0 89.7086 0C87.7379 0 86.1404 1.59829 86.1404 3.56989C86.1404 5.54148 87.7379 7.13977 89.7086 7.13977Z" fill="#3F3D56"/>
<path d="M102.035 7.13977C104.006 7.13977 105.603 5.54148 105.603 3.56989C105.603 1.59829 104.006 0 102.035 0C100.064 0 98.4669 1.59829 98.4669 3.56989C98.4669 5.54148 100.064 7.13977 102.035 7.13977Z" fill="#3F3D56"/>
<path d="M286.194 2.18364H277.436C277.264 2.18304 277.1 2.1144 276.979 1.99274C276.858 1.87108 276.79 1.70632 276.79 1.53457C276.79 1.36281 276.858 1.19806 276.979 1.0764C277.1 0.954738 277.264 0.886091 277.436 0.885498H286.194C286.366 0.886091 286.531 0.954738 286.652 1.0764C286.773 1.19806 286.841 1.36281 286.841 1.53457C286.841 1.70632 286.773 1.87108 286.652 1.99274C286.531 2.1144 286.366 2.18304 286.194 2.18364V2.18364Z" fill="#3F3D56"/>
<path d="M286.194 4.6176H277.436C277.264 4.617 277.1 4.54836 276.979 4.4267C276.858 4.30504 276.79 4.14029 276.79 3.96853C276.79 3.79677 276.858 3.63202 276.979 3.51036C277.1 3.3887 277.264 3.32005 277.436 3.31946H286.194C286.366 3.32005 286.531 3.3887 286.652 3.51036C286.773 3.63202 286.841 3.79677 286.841 3.96853C286.841 4.14029 286.773 4.30504 286.652 4.4267C286.531 4.54836 286.366 4.617 286.194 4.6176V4.6176Z" fill="#3F3D56"/>
<path d="M286.194 7.05155H277.436C277.264 7.05096 277.1 6.98232 276.979 6.86066C276.858 6.739 276.79 6.57424 276.79 6.40249C276.79 6.23073 276.858 6.06597 276.979 5.94431C277.1 5.82265 277.264 5.75401 277.436 5.75342H286.194C286.366 5.75401 286.531 5.82265 286.652 5.94431C286.773 6.06597 286.841 6.23073 286.841 6.40249C286.841 6.57424 286.773 6.739 286.652 6.86066C286.531 6.98232 286.366 7.05096 286.194 7.05155V7.05155Z" fill="#3F3D56"/>
<path d="M226.215 62.7061H134.396C133.884 62.7171 133.386 62.5397 132.997 62.2075C132.607 61.8753 132.353 61.4115 132.283 60.9043C132.254 60.6245 132.284 60.3417 132.372 60.0742C132.459 59.8068 132.601 59.5606 132.789 59.3517C132.978 59.1427 133.208 58.9757 133.465 58.8614C133.722 58.747 134 58.6879 134.281 58.6879H226.073C226.593 58.6742 227.099 58.8535 227.495 59.1912C227.89 59.5289 228.147 60.0011 228.216 60.5169C228.241 60.7948 228.207 61.0749 228.118 61.3392C228.029 61.6036 227.886 61.8465 227.698 62.0524C227.509 62.2584 227.28 62.4228 227.025 62.5354C226.77 62.6479 226.494 62.7061 226.215 62.7061V62.7061Z" fill="#6C63FF"/>
<defs>
<clipPath id="clip0_488_103">
<rect width="22" height="22" fill="white" transform="translate(107 242)"/>
</clipPath>
</defs>
</svg>
