<svg width="27" height="27" viewBox="0 0 27 27" fill="none" xmlns="http://www.w3.org/2000/svg">
<g clip-path="url(#clip0_50_495)">
<path d="M25.6939 6.77869L20.8929 6.39816L20.509 1.67569L16.4379 3.618L13.6342 0L11.0227 3.69394L6.83606 1.485L6.60572 6.32137L1.84359 6.55003L3.64837 11.1198L0 13.3667L3.72516 16.1848L1.84359 20.1833L6.49097 20.7166L6.76013 25.2863L11.1004 23.2301L13.9413 27L16.4759 23.1922L20.4702 25.1345L20.8162 20.412L25.4635 20.2981L23.7355 16.3755L27 13.5574L23.4284 10.6633L25.6939 6.77869ZM12.2234 17.7964L8.43075 14.4273L9.27112 13.4814L12.0555 15.9545L17.739 8.67712L18.7363 9.45591L12.2234 17.7964Z" fill="#477BFF"/>
<path d="M12.0555 15.9536L9.27116 13.4814L8.43079 14.4273L12.2234 17.7964L18.7363 9.45506L17.739 8.67628L12.0555 15.9536Z" fill="white"/>
</g>
<defs>
<clipPath id="clip0_50_495">
<rect width="27" height="27" fill="white"/>
</clipPath>
</defs>
</svg>
